solid unit_plate_1x1x0p1
  facet normal 0.00000000e+00 0.00000000e+00 -1.00000000e+00
    outer loop
      vertex 0.00000000e+00 0.00000000e+00 0.00000000e+00
      vertex 1.00000000e+00 1.00000000e+00 0.00000000e+00
      vertex 1.00000000e+00 0.00000000e+00 0.00000000e+00
    endloop
  endfacet
  facet normal 0.00000000e+00 0.00000000e+00 -1.00000000e+00
    outer loop
      vertex 0.00000000e+00 0.00000000e+00 0.00000000e+00
      vertex 0.00000000e+00 1.00000000e+00 0.00000000e+00
      vertex 1.00000000e+00 1.00000000e+00 0.00000000e+00
    endloop
  endfacet
  facet normal 0.00000000e+00 0.00000000e+00 1.00000000e+00
    outer loop
      vertex 0.00000000e+00 0.00000000e+00 1.00000000e-01
      vertex 1.00000000e+00 0.00000000e+00 1.00000000e-01
      vertex 1.00000000e+00 1.00000000e+00 1.00000000e-01
    endloop
  endfacet
  facet normal 0.00000000e+00 0.00000000e+00 1.00000000e+00
    outer loop
      vertex 0.00000000e+00 0.00000000e+00 1.00000000e-01
      vertex 1.00000000e+00 1.00000000e+00 1.00000000e-01
      vertex 0.00000000e+00 1.00000000e+00 1.00000000e-01
    endloop
  endfacet
  facet normal -1.00000000e+00 0.00000000e+00 0.00000000e+00
    outer loop
      vertex 0.00000000e+00 0.00000000e+00 0.00000000e+00
      vertex 0.00000000e+00 0.00000000e+00 1.00000000e-01
      vertex 0.00000000e+00 1.00000000e+00 1.00000000e-01
    endloop
  endfacet
  facet normal -1.00000000e+00 0.00000000e+00 0.00000000e+00
    outer loop
      vertex 0.00000000e+00 0.00000000e+00 0.00000000e+00
      vertex 0.00000000e+00 1.00000000e+00 1.00000000e-01
      vertex 0.00000000e+00 1.00000000e+00 0.00000000e+00
    endloop
  endfacet
  facet normal 1.00000000e+00 0.00000000e+00 0.00000000e+00
    outer loop
      vertex 1.00000000e+00 0.00000000e+00 0.00000000e+00
      vertex 1.00000000e+00 1.00000000e+00 0.00000000e+00
      vertex 1.00000000e+00 1.00000000e+00 1.00000000e-01
    endloop
  endfacet
  facet normal 1.00000000e+00 0.00000000e+00 0.00000000e+00
    outer loop
      vertex 1.00000000e+00 0.00000000e+00 0.00000000e+00
      vertex 1.00000000e+00 1.00000000e+00 1.00000000e-01
      vertex 1.00000000e+00 0.00000000e+00 1.00000000e-01
    endloop
  endfacet
  facet normal 0.00000000e+00 -1.00000000e+00 0.00000000e+00
    outer loop
      vertex 0.00000000e+00 0.00000000e+00 0.00000000e+00
      vertex 1.00000000e+00 0.00000000e+00 0.00000000e+00
      vertex 1.00000000e+00 0.00000000e+00 1.00000000e-01
    endloop
  endfacet
  facet normal 0.00000000e+00 -1.00000000e+00 0.00000000e+00
    outer loop
      vertex 0.00000000e+00 0.00000000e+00 0.00000000e+00
      vertex 1.00000000e+00 0.00000000e+00 1.00000000e-01
      vertex 0.00000000e+00 0.00000000e+00 1.00000000e-01
    endloop
  endfacet
  facet normal 0.00000000e+00 1.00000000e+00 0.00000000e+00
    outer loop
      vertex 0.00000000e+00 1.00000000e+00 0.00000000e+00
      vertex 0.00000000e+00 1.00000000e+00 1.00000000e-01
      vertex 1.00000000e+00 1.00000000e+00 1.00000000e-01
    endloop
  endfacet
  facet normal 0.00000000e+00 1.00000000e+00 0.00000000e+00
    outer loop
      vertex 0.00000000e+00 1.00000000e+00 0.00000000e+00
      vertex 1.00000000e+00 1.00000000e+00 1.00000000e-01
      vertex 1.00000000e+00 1.00000000e+00 0.00000000e+00
    endloop
  endfacet
endsolid unit_plate_1x1x0p1
